<svg xmlns="http://www.w3.org/2000/svg" xmlns:xlink="http://www.w3.org/1999/xlink" id="Ebene_1" x="0" y="0" version="1.1" xml:space="preserve" viewBox="0 0 226.82 57.56"><path id="path3" d="M137.3 8.11a3.54 3.54 0 00-2.06-.68c-1.21 0-1.87.76-1.87 2.41v.83h4.97v1.93h-4.97v10.85h-2.13V12.6h-3.6v-1.93h3.6V9.9c0-3.1 1.5-4.39 3.93-4.39 1.17 0 1.95.3 2.66.74l-.53 1.87z"/><path id="path5" d="M145.44 21.73c2.6 0 4.1-2.2 4.1-4.67 0-2.46-1.5-4.66-4.1-4.66-2.61 0-4.1 2.2-4.1 4.66s1.49 4.67 4.1 4.67m0-11.26c3.9 0 6.28 3.07 6.28 6.6 0 3.52-2.38 6.58-6.28 6.58-3.9 0-6.29-3.06-6.29-6.59 0-3.52 2.39-6.59 6.29-6.59"/><path id="path7" d="M163.23 14.73c-.18-1.47-.94-2.33-2.46-2.33-2.23 0-4.33 2.1-4.33 6.44v4.61h-2.13V10.67h2.13v2.36a5.39 5.39 0 014.71-2.56c2.54 0 4.06 1.52 4.21 4.26h-2.13z"/><path id="polygon9" fill="#d57a75" d="M70.6 72.34h1.9V27.57h-5.6v44.77z" transform="translate(-36.83 -22.67)"/><g id="g11" transform="translate(-36.83 -22.67)"><path id="path13" fill="#ce5a4e" d="M89.1 76.53c.39 0 .9-.34.9-.72V23.38c0-.39-.51-.7-.9-.7H71.63c-.39 0-.52.15-.52.35v4.54c0 .38.13.7.51.7h11.89c.38 0 .89.31.89.7v41.25c0 .38-.5.72-.9.72H71.63c-.38 0-.51.13-.51.32v4.55c0 .38.13.73.51.73H89.1z"/></g><path id="polygon15" fill="#8bbd97" d="M101.68 72.34h.9V27.57h-5.6v44.77z" transform="translate(-36.83 -22.67)"/><g id="g17" transform="translate(-36.83 -22.67)"><path id="path19" fill="#4ea15a" d="M101.88 76.5v-5.59c7.7 0 13.07-9.56 13.07-21.32s-5.37-21.32-13.07-21.32v-5.6c10.5 0 18.66 12.08 18.66 26.92 0 14.84-8.17 26.91-18.66 26.91"/><path id="path21" fill="#33a1df" d="M43.83 59.3v10.2c0 4.18 2.67 7.04 6.9 7.04h8.66c.2 0 .52-.35.52-.73v-4.2c0-.38-.48-.67-.87-.67H51.7c-1.8 0-2.28-.77-2.28-2.84V56.04c0-4.22-1.71-5.77-3.8-6.54 2.09-.76 3.8-2.31 3.8-6.53V30.91c0-2.03.4-2.64 2.28-2.64h7.69c.2 0 .52-.32.52-.7v-4.2c0-.38-.49-.7-.87-.7H50.74c-4.23 0-6.91 2.74-6.91 6.84v11.34s-.14 2.1-.24 2.81c-.27 1.9-2.58 3.52-4.02 3.5h-2.2c-.38 0-.54.3-.54.68v4.2c0 .38.16.71.54.71h2.01c1.83-.02 4.15 1.52 4.32 3.82.05.67.13 2.74.13 2.74"/><path id="path23" fill="#bd3c38" d="M71.63 22.68h-4.2c-.39 0-.52.31-.52.7v4.89H72.5V22.67h-.87z"/><path id="path25" fill="#bd3c38" d="M66.9 71.61V75.8c0 .39.15.73.53.73h5.07v-5.59h-5.59v.67z"/><path id="path27" fill="#27954e" d="M101.68 22.68H97.5c-.38 0-.5.31-.5.7v4.89H102.59V22.67h-.9z"/><path id="path29" fill="#27954e" d="M96.99 71.61V75.8c0 .39.12.73.5.73H102.59v-5.59H96.98v.67z"/><path id="path31" fill="#7bbbb7" d="M131.96 59.3v10.2c0 4.18 2.63 7.04 6.86 7.04H147.47c.2 0 .57-.35.57-.73v-4.2c0-.38-.53-.67-.92-.67H139.8c-1.81 0-2.24-.77-2.24-2.84V56.04c0-1.36-.4-2.59-.7-3.29h-9.4c2.59.7 3.69 1.62 4.21 3.87.27 1.12.3 2.69.3 2.69"/><path id="path33" fill="#7bbbb7" d="M131.56 43.66c-.54 1.84-1.75 2.8-3.9 3.5h8.8c.55-1.4 1.1-2.33 1.1-4.19V30.91c0-2.03.35-2.64 2.23-2.64h7.68c.2 0 .58-.32.58-.7v-4.2c0-.38-.54-.7-.93-.7h-8.3c-4.23 0-6.86 2.75-6.86 6.84v11.34s-.13 1.9-.4 2.82"/><path id="path35" fill="#9ac9c6" d="M132.92 50c1.42.52 2.97 1.35 3.93 2.75h10.27c.39 0 .93-.33.93-.71v-4.2c0-.38-.54-.69-.93-.69h-10.66c-.7 1.4-2.36 2.42-3.54 2.85"/><path id="path37" fill="#42a5a5" d="M125.45 47.16c-.38 0-.49.3-.49.68v4.2c0 .38.1.72.5.72h11.39c-.63-1.4-2.2-2.36-3.32-2.8a5.5 5.5 0 002.93-2.8h-11z"/></g><g id="g39" transform="translate(-36.83 -22.67)"><path id="rect41" fill="#ce5a4e" d="M161.6 49.05h102.05v31.18H161.6z"/><g id="g43"><g id="g45"><defs id="defs47"><path id="SVGID_1_" d="M161.6 49.05h102.05v31.18H161.6z"/></defs><clipPath id="SVGID_2_"><use id="use51" width="297.64" height="99.21" x="0" y="0" overflow="visible" xlink:href="#SVGID_1_"/></clipPath><path id="path53" fill="#fff" d="M244.8 64.75c-.1-1.97-1.14-3.07-2.88-3.07-1.45 0-2.54.73-3.22 1.85v-1.7h-1.46v9.21h1.46v-3.32c0-3.13 1.44-4.65 2.96-4.65 1.04 0 1.57.62 1.69 1.68h1.45zm-13.73-1.68c1.42 0 2.34.84 2.6 2.3h-5.18c.3-1.38 1.18-2.3 2.58-2.3m4.15 3.06c0-2.42-1.44-4.45-4.15-4.45-2.61 0-4.18 2.16-4.18 4.76 0 2.68 1.63 4.75 4.18 4.75 1.63 0 3.02-.64 3.97-2.58l-1.16-.64c-.59 1.15-1.49 1.83-2.8 1.83-1.55 0-2.61-1.2-2.7-3.04h6.83v-.64zm-17.69-2.91h2.33v4.77c0 2.14 1.05 3.2 2.96 3.2 1.1 0 1.89-.35 2.69-1.2l-.54-1.29c-.76.84-1.39 1.1-2.15 1.1-.97 0-1.5-.59-1.5-1.87v-4.71h4.26v-1.39h-4.27V58.1l-1.45.97v2.76h-2.32v1.39zm-4.64-1.54c-1.61 0-2.98 1.03-2.98 2.67 0 1.81 1.35 2.34 2.82 2.67 1.39.31 2.26.57 2.26 1.36 0 .96-.87 1.42-1.86 1.42-1.2 0-2.03-.7-2.4-1.83l-1.4.55c.54 1.76 2.05 2.67 3.8 2.67 1.8 0 3.36-1.06 3.36-2.96 0-1.66-1.5-2.16-3.13-2.5-1.3-.28-2.03-.65-2.03-1.43 0-.9.76-1.23 1.5-1.23.94 0 1.57.44 2.1 1.47l1.15-.86c-.66-1.27-1.61-2-3.2-2m-5.12 2.95c0-1.78-.85-2.95-2.67-2.95-1.25 0-2.34.79-2.97 1.85v-1.7h-1.45v9.21h1.45v-3.7c0-2.7 1.2-4.27 2.57-4.27 1.04 0 1.6.6 1.6 1.88v6.1h1.46v-6.43zm-12.59-5.49c0 .59.43 1.03.97 1.03.57 0 .99-.44.99-1.03 0-.58-.42-1.04-.99-1.04-.54 0-.97.46-.97 1.04m-3.19 0c0 .59.43 1.03.97 1.03.57 0 .99-.44.99-1.03 0-.58-.42-1.04-.99-1.04-.54 0-.97.46-.97 1.04m-1.02 9.1c0 1.78.85 2.95 2.67 2.95 1.24 0 2.34-.79 2.96-1.85v1.7h1.46v-9.21h-1.46v3.7c0 2.7-1.2 4.27-2.56 4.27-1.04 0-1.61-.6-1.61-1.88v-6.1h-1.46v6.43zm-10.5-10v12.8h1.52v-9.38l2.11 5.7h1.15l2.11-5.7v9.38h1.52v-12.8h-1.62l-2.59 7.1-2.58-7.1h-1.63z" clip-path="url(#SVGID_2_)"/></g></g></g></svg>