<?xml version="1.0" encoding="UTF-8" standalone="no"?>
<svg
   xmlns:dc="http://purl.org/dc/elements/1.1/"
   xmlns:cc="http://creativecommons.org/ns#"
   xmlns:rdf="http://www.w3.org/1999/02/22-rdf-syntax-ns#"
   xmlns:svg="http://www.w3.org/2000/svg"
   xmlns="http://www.w3.org/2000/svg"
   xmlns:sodipodi="http://sodipodi.sourceforge.net/DTD/sodipodi-0.dtd"
   xmlns:inkscape="http://www.inkscape.org/namespaces/inkscape"
   id="Ebene_1"
   x="0"
   y="0"
   version="1.1"
   xml:space="preserve"
   viewBox="0 0 111.22 53.869998"
   sodipodi:docname="code.svg"
   width="111.22"
   height="53.869999"
   inkscape:version="0.92.4 (5da689c313, 2019-01-14)"><metadata
     id="metadata34"><rdf:RDF><cc:Work
         rdf:about=""><dc:format>image/svg+xml</dc:format><dc:type
           rdf:resource="http://purl.org/dc/dcmitype/StillImage" /><dc:title></dc:title></cc:Work></rdf:RDF></metadata><defs
     id="defs32" /><sodipodi:namedview
     pagecolor="#ffffff"
     bordercolor="#666666"
     borderopacity="1"
     objecttolerance="10"
     gridtolerance="10"
     guidetolerance="10"
     inkscape:pageopacity="0"
     inkscape:pageshadow="2"
     inkscape:window-width="1982"
     inkscape:window-height="1088"
     id="namedview30"
     showgrid="false"
     fit-margin-top="0"
     fit-margin-left="0"
     fit-margin-right="0"
     fit-margin-bottom="0"
     inkscape:zoom="1.3314522"
     inkscape:cx="31.168975"
     inkscape:cy="25.089999"
     inkscape:window-x="66"
     inkscape:window-y="27"
     inkscape:window-maximized="1"
     inkscape:current-layer="Ebene_1" /><path
     id="polygon9"
     d="m 33.77,49.67 h 1.9 V 4.9 h -5.6 v 44.77 z"
     inkscape:connector-curvature="0"
     style="fill:#d57a75" /><g
     id="g11"
     transform="translate(-36.83,-22.67)"><path
       id="path13"
       d="m 89.1,76.53 c 0.39,0 0.9,-0.34 0.9,-0.72 V 23.38 c 0,-0.39 -0.51,-0.7 -0.9,-0.7 H 71.63 c -0.39,0 -0.52,0.15 -0.52,0.35 v 4.54 c 0,0.38 0.13,0.7 0.51,0.7 h 11.89 c 0.38,0 0.89,0.31 0.89,0.7 v 41.25 c 0,0.38 -0.5,0.72 -0.9,0.72 H 71.63 c -0.38,0 -0.51,0.13 -0.51,0.32 v 4.55 c 0,0.38 0.13,0.73 0.51,0.73 H 89.1 Z"
       inkscape:connector-curvature="0"
       style="fill:#ce5a4e" /></g><path
     id="polygon15"
     d="m 64.85,49.67 h 0.9 V 4.9 h -5.6 v 44.77 z"
     inkscape:connector-curvature="0"
     style="fill:#8bbd97" /><g
     id="g17"
     transform="translate(-36.83,-22.67)"><path
       id="path19"
       d="m 101.88,76.5 v -5.59 c 7.7,0 13.07,-9.56 13.07,-21.32 0,-11.76 -5.37,-21.32 -13.07,-21.32 v -5.6 c 10.5,0 18.66,12.08 18.66,26.92 0,14.84 -8.17,26.91 -18.66,26.91"
       inkscape:connector-curvature="0"
       style="fill:#4ea15a" /><path
       id="path21"
       d="m 43.83,59.3 v 10.2 c 0,4.18 2.67,7.04 6.9,7.04 h 8.66 c 0.2,0 0.52,-0.35 0.52,-0.73 v -4.2 c 0,-0.38 -0.48,-0.67 -0.87,-0.67 H 51.7 c -1.8,0 -2.28,-0.77 -2.28,-2.84 V 56.04 c 0,-4.22 -1.71,-5.77 -3.8,-6.54 2.09,-0.76 3.8,-2.31 3.8,-6.53 V 30.91 c 0,-2.03 0.4,-2.64 2.28,-2.64 h 7.69 c 0.2,0 0.52,-0.32 0.52,-0.7 v -4.2 c 0,-0.38 -0.49,-0.7 -0.87,-0.7 h -8.3 c -4.23,0 -6.91,2.74 -6.91,6.84 v 11.34 c 0,0 -0.14,2.1 -0.24,2.81 -0.27,1.9 -2.58,3.52 -4.02,3.5 h -2.2 c -0.38,0 -0.54,0.3 -0.54,0.68 v 4.2 c 0,0.38 0.16,0.71 0.54,0.71 h 2.01 c 1.83,-0.02 4.15,1.52 4.32,3.82 0.05,0.67 0.13,2.74 0.13,2.74"
       inkscape:connector-curvature="0"
       style="fill:#33a1df" /><path
       id="path23"
       d="m 71.63,22.68 h -4.2 c -0.39,0 -0.52,0.31 -0.52,0.7 v 4.89 h 5.59 v -5.6 h -0.87 z"
       inkscape:connector-curvature="0"
       style="fill:#bd3c38" /><path
       id="path25"
       d="m 66.9,71.61 v 4.19 c 0,0.39 0.15,0.73 0.53,0.73 h 5.07 v -5.59 h -5.59 v 0.67 z"
       inkscape:connector-curvature="0"
       style="fill:#bd3c38" /><path
       id="path27"
       d="M 101.68,22.68 H 97.5 c -0.38,0 -0.5,0.31 -0.5,0.7 v 4.89 h 5.59 v -5.6 h -0.9 z"
       inkscape:connector-curvature="0"
       style="fill:#27954e" /><path
       id="path29"
       d="m 96.99,71.61 v 4.19 c 0,0.39 0.12,0.73 0.5,0.73 h 5.1 v -5.59 h -5.61 v 0.67 z"
       inkscape:connector-curvature="0"
       style="fill:#27954e" /><path
       id="path31"
       d="m 131.96,59.3 v 10.2 c 0,4.18 2.63,7.04 6.86,7.04 h 8.65 c 0.2,0 0.57,-0.35 0.57,-0.73 v -4.2 c 0,-0.38 -0.53,-0.67 -0.92,-0.67 h -7.32 c -1.81,0 -2.24,-0.77 -2.24,-2.84 V 56.04 c 0,-1.36 -0.4,-2.59 -0.7,-3.29 h -9.4 c 2.59,0.7 3.69,1.62 4.21,3.87 0.27,1.12 0.3,2.69 0.3,2.69"
       inkscape:connector-curvature="0"
       style="fill:#7bbbb7" /><path
       id="path33"
       d="m 131.56,43.66 c -0.54,1.84 -1.75,2.8 -3.9,3.5 h 8.8 c 0.55,-1.4 1.1,-2.33 1.1,-4.19 V 30.91 c 0,-2.03 0.35,-2.64 2.23,-2.64 h 7.68 c 0.2,0 0.58,-0.32 0.58,-0.7 v -4.2 c 0,-0.38 -0.54,-0.7 -0.93,-0.7 h -8.3 c -4.23,0 -6.86,2.75 -6.86,6.84 v 11.34 c 0,0 -0.13,1.9 -0.4,2.82"
       inkscape:connector-curvature="0"
       style="fill:#7bbbb7" /><path
       id="path35"
       d="m 132.92,50 c 1.42,0.52 2.97,1.35 3.93,2.75 h 10.27 c 0.39,0 0.93,-0.33 0.93,-0.71 v -4.2 c 0,-0.38 -0.54,-0.69 -0.93,-0.69 h -10.66 c -0.7,1.4 -2.36,2.42 -3.54,2.85"
       inkscape:connector-curvature="0"
       style="fill:#9ac9c6" /><path
       id="path37"
       d="m 125.45,47.16 c -0.38,0 -0.49,0.3 -0.49,0.68 v 4.2 c 0,0.38 0.1,0.72 0.5,0.72 h 11.39 c -0.63,-1.4 -2.2,-2.36 -3.32,-2.8 a 5.5,5.5 0 0 0 2.93,-2.8 h -11 z"
       inkscape:connector-curvature="0"
       style="fill:#42a5a5" /></g></svg>