<?xml version="1.0" encoding="UTF-8" standalone="no"?>
<svg
   xmlns:dc="http://purl.org/dc/elements/1.1/"
   xmlns:cc="http://creativecommons.org/ns#"
   xmlns:rdf="http://www.w3.org/1999/02/22-rdf-syntax-ns#"
   xmlns:svg="http://www.w3.org/2000/svg"
   xmlns="http://www.w3.org/2000/svg"
   xmlns:xlink="http://www.w3.org/1999/xlink"
   xmlns:sodipodi="http://sodipodi.sourceforge.net/DTD/sodipodi-0.dtd"
   xmlns:inkscape="http://www.inkscape.org/namespaces/inkscape"
   id="Ebene_1"
   x="0"
   y="0"
   version="1.1"
   xml:space="preserve"
   viewBox="0 0 226.82 53.869998"
   sodipodi:docname="navbar_logo.svg"
   width="226.82001"
   height="53.869999"
   inkscape:version="0.92.4 (5da689c313, 2019-01-14)"><metadata
     id="metadata34"><rdf:RDF><cc:Work
         rdf:about=""><dc:format>image/svg+xml</dc:format><dc:type
           rdf:resource="http://purl.org/dc/dcmitype/StillImage" /><dc:title></dc:title></cc:Work></rdf:RDF></metadata><defs
     id="defs32"><clipPath
       id="SVGID_2_-3"><use
         id="use51-6"
         width="297.64001"
         height="99.209999"
         x="0"
         y="0"
         overflow="visible"
         xlink:href="#SVGID_1_"
         style="overflow:visible" /></clipPath><defs
       id="defs47"><path
         inkscape:connector-curvature="0"
         d="M 161.6,49.05 H 263.65 V 80.23 H 161.6 Z"
         id="SVGID_1_" /></defs><clipPath
       id="SVGID_2_"><use
         style="overflow:visible"
         xlink:href="#SVGID_1_"
         overflow="visible"
         y="0"
         x="0"
         height="99.209999"
         width="297.64001"
         id="use51" /></clipPath></defs><sodipodi:namedview
     pagecolor="#ffffff"
     bordercolor="#666666"
     borderopacity="1"
     objecttolerance="10"
     gridtolerance="10"
     guidetolerance="10"
     inkscape:pageopacity="0"
     inkscape:pageshadow="2"
     inkscape:window-width="1982"
     inkscape:window-height="1088"
     id="namedview30"
     showgrid="false"
     fit-margin-top="0"
     fit-margin-left="0"
     fit-margin-right="0"
     fit-margin-bottom="0"
     inkscape:zoom="3.7659155"
     inkscape:cx="113.19196"
     inkscape:cy="1.1933033"
     inkscape:window-x="66"
     inkscape:window-y="27"
     inkscape:window-maximized="1"
     inkscape:current-layer="Ebene_1" /><path
     id="polygon9"
     d="m 33.77,49.32 h 1.9 V 4.5499997 h -5.6 V 49.32 Z"
     inkscape:connector-curvature="0"
     style="fill:#d57a75" /><g
     id="g11"
     transform="translate(-36.83,-22.675)"><path
       id="path13"
       d="m 89.1,76.53 c 0.39,0 0.9,-0.34 0.9,-0.72 V 23.38 c 0,-0.39 -0.51,-0.7 -0.9,-0.7 H 71.63 c -0.39,0 -0.52,0.15 -0.52,0.35 v 4.54 c 0,0.38 0.13,0.7 0.51,0.7 h 11.89 c 0.38,0 0.89,0.31 0.89,0.7 v 41.25 c 0,0.38 -0.5,0.72 -0.9,0.72 H 71.63 c -0.38,0 -0.51,0.13 -0.51,0.32 v 4.55 c 0,0.38 0.13,0.73 0.51,0.73 H 89.1 Z"
       inkscape:connector-curvature="0"
       style="fill:#ce5a4e" /></g><path
     id="polygon15"
     d="m 64.85,49.32 h 0.9 V 4.5499997 h -5.6 V 49.32 Z"
     inkscape:connector-curvature="0"
     style="fill:#8bbd97" /><g
     id="g17"
     transform="translate(-36.83,-22.67)"><path
       id="path19"
       d="m 101.88,76.5 v -5.59 c 7.7,0 13.07,-9.56 13.07,-21.32 0,-11.76 -5.37,-21.32 -13.07,-21.32 v -5.6 c 10.5,0 18.66,12.08 18.66,26.92 0,14.84 -8.17,26.91 -18.66,26.91"
       inkscape:connector-curvature="0"
       style="fill:#4ea15a" /><path
       id="path21"
       d="m 43.83,59.3 v 10.2 c 0,4.18 2.67,7.04 6.9,7.04 h 8.66 c 0.2,0 0.52,-0.35 0.52,-0.73 v -4.2 c 0,-0.38 -0.48,-0.67 -0.87,-0.67 H 51.7 c -1.8,0 -2.28,-0.77 -2.28,-2.84 V 56.04 c 0,-4.22 -1.71,-5.77 -3.8,-6.54 2.09,-0.76 3.8,-2.31 3.8,-6.53 V 30.91 c 0,-2.03 0.4,-2.64 2.28,-2.64 h 7.69 c 0.2,0 0.52,-0.32 0.52,-0.7 v -4.2 c 0,-0.38 -0.49,-0.7 -0.87,-0.7 h -8.3 c -4.23,0 -6.91,2.74 -6.91,6.84 v 11.34 c 0,0 -0.14,2.1 -0.24,2.81 -0.27,1.9 -2.58,3.52 -4.02,3.5 h -2.2 c -0.38,0 -0.54,0.3 -0.54,0.68 v 4.2 c 0,0.38 0.16,0.71 0.54,0.71 h 2.01 c 1.83,-0.02 4.15,1.52 4.32,3.82 0.05,0.67 0.13,2.74 0.13,2.74"
       inkscape:connector-curvature="0"
       style="fill:#33a1df" /><path
       id="path23"
       d="m 71.63,22.68 h -4.2 c -0.39,0 -0.52,0.31 -0.52,0.7 v 4.89 h 5.59 v -5.6 h -0.87 z"
       inkscape:connector-curvature="0"
       style="fill:#bd3c38" /><path
       id="path25"
       d="m 66.9,71.61 v 4.19 c 0,0.39 0.15,0.73 0.53,0.73 h 5.07 v -5.59 h -5.59 v 0.67 z"
       inkscape:connector-curvature="0"
       style="fill:#bd3c38" /><path
       id="path27"
       d="M 101.68,22.68 H 97.5 c -0.38,0 -0.5,0.31 -0.5,0.7 v 4.89 h 5.59 v -5.6 h -0.9 z"
       inkscape:connector-curvature="0"
       style="fill:#27954e" /><path
       id="path29"
       d="m 96.99,71.61 v 4.19 c 0,0.39 0.12,0.73 0.5,0.73 h 5.1 v -5.59 h -5.61 v 0.67 z"
       inkscape:connector-curvature="0"
       style="fill:#27954e" /><path
       id="path31"
       d="m 131.96,59.3 v 10.2 c 0,4.18 2.63,7.04 6.86,7.04 h 8.65 c 0.2,0 0.57,-0.35 0.57,-0.73 v -4.2 c 0,-0.38 -0.53,-0.67 -0.92,-0.67 h -7.32 c -1.81,0 -2.24,-0.77 -2.24,-2.84 V 56.04 c 0,-1.36 -0.4,-2.59 -0.7,-3.29 h -9.4 c 2.59,0.7 3.69,1.62 4.21,3.87 0.27,1.12 0.3,2.69 0.3,2.69"
       inkscape:connector-curvature="0"
       style="fill:#7bbbb7" /><path
       id="path33"
       d="m 131.56,43.66 c -0.54,1.84 -1.75,2.8 -3.9,3.5 h 8.8 c 0.55,-1.4 1.1,-2.33 1.1,-4.19 V 30.91 c 0,-2.03 0.35,-2.64 2.23,-2.64 h 7.68 c 0.2,0 0.58,-0.32 0.58,-0.7 v -4.2 c 0,-0.38 -0.54,-0.7 -0.93,-0.7 h -8.3 c -4.23,0 -6.86,2.75 -6.86,6.84 v 11.34 c 0,0 -0.13,1.9 -0.4,2.82"
       inkscape:connector-curvature="0"
       style="fill:#7bbbb7" /><path
       id="path35"
       d="m 132.92,50 c 1.42,0.52 2.97,1.35 3.93,2.75 h 10.27 c 0.39,0 0.93,-0.33 0.93,-0.71 v -4.2 c 0,-0.38 -0.54,-0.69 -0.93,-0.69 h -10.66 c -0.7,1.4 -2.36,2.42 -3.54,2.85"
       inkscape:connector-curvature="0"
       style="fill:#9ac9c6" /><path
       id="path37"
       d="m 125.45,47.16 c -0.38,0 -0.49,0.3 -0.49,0.68 v 4.2 c 0,0.38 0.1,0.72 0.5,0.72 h 11.39 c -0.63,-1.4 -2.2,-2.36 -3.32,-2.8 a 5.5,5.5 0 0 0 2.93,-2.8 h -11 z"
       inkscape:connector-curvature="0"
       style="fill:#42a5a5" /></g><path
     inkscape:connector-curvature="0"
     id="path3"
     d="m 137.3,3.5099997 a 3.54,3.54 0 0 0 -2.06,-0.68 c -1.21,0 -1.87,0.76 -1.87,2.41 v 0.83 h 4.97 v 1.93 h -4.97 V 18.85 h -2.13 V 7.9999997 h -3.6 v -1.93 h 3.6 v -0.77 c 0,-3.1 1.5,-4.39 3.93,-4.39 1.17,0 1.95,0.3 2.66,0.74 l -0.53,1.87 z" /><path
     inkscape:connector-curvature="0"
     id="path5"
     d="m 145.44,17.13 c 2.6,0 4.1,-2.2 4.1,-4.67 0,-2.4600003 -1.5,-4.6600003 -4.1,-4.6600003 -2.61,0 -4.1,2.2 -4.1,4.6600003 0,2.46 1.49,4.67 4.1,4.67 m 0,-11.2600003 c 3.9,0 6.28,3.07 6.28,6.6000003 0,3.52 -2.38,6.58 -6.28,6.58 -3.9,0 -6.29,-3.06 -6.29,-6.59 0,-3.5200003 2.39,-6.5900003 6.29,-6.5900003" /><path
     inkscape:connector-curvature="0"
     id="path7"
     d="m 163.23,10.13 c -0.18,-1.4700003 -0.94,-2.3300003 -2.46,-2.3300003 -2.23,0 -4.33,2.1 -4.33,6.4400003 v 4.61 h -2.13 V 6.0699997 h 2.13 v 2.36 a 5.39,5.39 0 0 1 4.71,-2.56 c 2.54,0 4.06,1.52 4.21,4.2600003 z" /><path
     style="fill:#ce5a4e"
     inkscape:connector-curvature="0"
     d="M 124.77,21.78 H 226.82 V 52.96 H 124.77 Z"
     id="rect41" /><path
     style="fill:#ffffff;stroke:none;stroke-width:0.66920668;stroke-linecap:round;stroke-linejoin:round;stroke-miterlimit:4;stroke-dasharray:none;stroke-opacity:1"
     transform="matrix(1.4943066,0,0,1.4943066,-141.93194,-59.229452)"
     inkscape:connector-curvature="0"
     clip-path="url(#SVGID_2_)"
     d="m 244.8,64.75 c -0.1,-1.97 -1.14,-3.07 -2.88,-3.07 -1.45,0 -2.54,0.73 -3.22,1.85 v -1.7 h -1.46 v 9.21 h 1.46 v -3.32 c 0,-3.13 1.44,-4.65 2.96,-4.65 1.04,0 1.57,0.62 1.69,1.68 z m -13.73,-1.68 c 1.42,0 2.34,0.84 2.6,2.3 h -5.18 c 0.3,-1.38 1.18,-2.3 2.58,-2.3 m 4.15,3.06 c 0,-2.42 -1.44,-4.45 -4.15,-4.45 -2.61,0 -4.18,2.16 -4.18,4.76 0,2.68 1.63,4.75 4.18,4.75 1.63,0 3.02,-0.64 3.97,-2.58 l -1.16,-0.64 c -0.59,1.15 -1.49,1.83 -2.8,1.83 -1.55,0 -2.61,-1.2 -2.7,-3.04 h 6.83 v -0.64 z m -17.69,-2.91 h 2.33 v 4.77 c 0,2.14 1.05,3.2 2.96,3.2 1.1,0 1.89,-0.35 2.69,-1.2 l -0.54,-1.29 c -0.76,0.84 -1.39,1.1 -2.15,1.1 -0.97,0 -1.5,-0.59 -1.5,-1.87 v -4.71 h 4.26 v -1.39 h -4.27 V 58.1 l -1.45,0.97 v 2.76 h -2.32 v 1.39 z m -4.64,-1.54 c -1.61,0 -2.98,1.03 -2.98,2.67 0,1.81 1.35,2.34 2.82,2.67 1.39,0.31 2.26,0.57 2.26,1.36 0,0.96 -0.87,1.42 -1.86,1.42 -1.2,0 -2.03,-0.7 -2.4,-1.83 l -1.4,0.55 c 0.54,1.76 2.05,2.67 3.8,2.67 1.8,0 3.36,-1.06 3.36,-2.96 0,-1.66 -1.5,-2.16 -3.13,-2.5 -1.3,-0.28 -2.03,-0.65 -2.03,-1.43 0,-0.9 0.76,-1.23 1.5,-1.23 0.94,0 1.57,0.44 2.1,1.47 l 1.15,-0.86 c -0.66,-1.27 -1.61,-2 -3.2,-2 m -5.12,2.95 c 0,-1.78 -0.85,-2.95 -2.67,-2.95 -1.25,0 -2.34,0.79 -2.97,1.85 v -1.7 h -1.45 v 9.21 h 1.45 v -3.7 c 0,-2.7 1.2,-4.27 2.57,-4.27 1.04,0 1.6,0.6 1.6,1.88 v 6.1 h 1.46 v -6.43 z m -12.59,-5.49 c 0,0.59 0.43,1.03 0.97,1.03 0.57,0 0.99,-0.44 0.99,-1.03 0,-0.58 -0.42,-1.04 -0.99,-1.04 -0.54,0 -0.97,0.46 -0.97,1.04 m -3.19,0 c 0,0.59 0.43,1.03 0.97,1.03 0.57,0 0.99,-0.44 0.99,-1.03 0,-0.58 -0.42,-1.04 -0.99,-1.04 -0.54,0 -0.97,0.46 -0.97,1.04 m -1.02,9.1 c 0,1.78 0.85,2.95 2.67,2.95 1.24,0 2.34,-0.79 2.96,-1.85 v 1.7 h 1.46 v -9.21 h -1.46 v 3.7 c 0,2.7 -1.2,4.27 -2.56,4.27 -1.04,0 -1.61,-0.6 -1.61,-1.88 v -6.1 h -1.46 v 6.43 z m -10.5,-10 v 12.8 h 1.52 v -9.38 l 2.11,5.7 h 1.15 l 2.11,-5.7 v 9.38 h 1.52 v -12.8 h -1.62 l -2.59,7.1 -2.58,-7.1 h -1.63 z"
     id="path53" /></svg>